<?xml version="1.0"?><svg width="2771.8586" height="2771.8586" xmlns="http://www.w3.org/2000/svg" xmlns:xlink="http://www.w3.org/1999/xlink">
 <title>Light Blue Sun Rays</title>
 <defs>
  <filter color-interpolation-filters="sRGB" height="1.685714" y="-0.342857" width="1.685714" x="-0.342857" id="filter5498">
   <feGaussianBlur id="feGaussianBlur5500" stdDeviation="86.122445"/>
  </filter>
  <linearGradient id="linearGradient5486">
   <stop stop-color="#fa7220" id="stop5488" offset="0"/>
   <stop stop-color="#f3ee22" stop-opacity="0.240876" id="stop5490" offset="1"/>
  </linearGradient>
  <radialGradient gradientUnits="userSpaceOnUse" gradientTransform="translate(0, 1.02682e-05)" r="1386.4293" fy="4067.4656" fx="-1323.7039" cy="4067.4656" cx="-1323.7039" id="radialGradient5492" xlink:href="#linearGradient5486"/>
 </defs>
 <metadata id="metadata4768">image/svg+xml</metadata>
 <g>
  <title>Layer 1</title>
  <g id="layer1">
   <g id="g5502">
    <g fill="url(#radialGradient5492)" id="g4962">
     <path fill="#aad4ff" id="use4891" d="m1272.78894,2771.863281l226.27417,0l-113.137085,-1436.84082l-113.137085,1436.84082zm0,-2771.858891l226.27417,0l-113.137085,1436.841313l-113.137085,-1436.841313z"/>
     <path fill="#aad4ff" id="use4895" d="m917.939087,2695.356445l218.563965,58.563477l262.599854,-1417.163574l-481.163818,1358.600098zm717.40979,-2677.410156l218.563965,58.564209l-481.163818,1358.599854l262.599854,-1417.164063z"/>
     <path fill="#aad4ff" id="use4899" d="m594.981689,2529.615234l195.959229,113.136719l620.440918,-1300.90918l-816.400146,1187.772461zm1385.929321,-2400.500244l195.959106,113.137207l-816.400024,1187.772217l620.440918,-1300.909424z"/>
     <path fill="#aad4ff" id="use4903" d="m325.926025,2285.933594l160,160l936.000122,-1096l-1096.000122,936zm1960,-1960.000244l160,160l-1096,936.000244l936,-1096.000244z"/>
     <path fill="#aad4ff" id="use4907" d="m129.109863,1980.917969l113.130127,195.959961l1187.779907,-816.399902l-1300.910034,620.439941zm2400.498047,-1385.929688l113.136719,195.959961l-1300.904785,620.439453l1187.768066,-816.399414l0,0z"/>
     <path fill="#aad4ff" id="use4911" d="m17.939939,1635.358398l58.560061,218.55957l1358.599854,-481.160156l-1417.159914,262.600586zm2677.409182,-717.410156l58.563721,218.55957l-1417.162964,262.600098l1358.598999,-481.159668l0.000244,0z"/>
     <path fill="#aad4ff" id="use4915" d="m0,1272.797852l0,226.270508l1436.839844,-113.130371l-1436.839844,-113.140137zm2771.855225,0l0,226.270508l-1436.845337,-113.130371l1436.845337,-113.140137l0,0z"/>
     <path fill="#aad4ff" id="use4919" d="m76.5,917.948242l-58.560061,218.55957l1417.159914,262.600098l-1358.599854,-481.159668zm2677.413086,717.410156l-58.564209,218.55957l-1358.598999,-481.160156l1417.163208,262.600586l0,0z"/>
     <path fill="#aad4ff" id="use4923" d="m242.23999,594.988281l-113.130127,195.959961l1300.910034,620.439453l-1187.779907,-816.399414zm2400.504639,1385.929688l-113.136719,195.959961l-1187.768066,-816.399902l1300.904785,620.439941l0,0z"/>
     <path fill="#aad4ff" id="use4927" d="m485.929932,325.937988l-160,160l1096,936.000488l-936,-1096.000488zm1959.99585,1960.000488l-160,160l-935.99585,-1096.000488l1095.99585,936.000488l0,0z"/>
     <path fill="#aad4ff" id="use4931" d="m790.94104,129.11499l-195.959106,113.137207l816.400024,1187.772217l-620.440918,-1300.909424zm1385.929321,2400.500244l-195.959229,113.136719l-620.440918,-1300.90918l816.400146,1187.772461z"/>
     <path fill="#aad4ff" id="use4935" d="m1136.503174,17.946529l-218.564087,58.563969l481.16394,1358.599854l-262.599854,-1417.163822zm717.40979,2677.409916l-218.564087,58.564453l-262.599854,-1417.164063l481.16394,1358.599609z"/>
    </g>
    <path fill="#aad4ff" stroke="#ffffff" stroke-width="3" stroke-linecap="round" stroke-linejoin="round" stroke-miterlimit="4" stroke-dashoffset="0" filter="url(#filter5498)" id="path4773" d="m1687.355835,1350.473022c0,166.474487 -134.954102,301.428589 -301.428589,301.428589c-166.474365,0 -301.428589,-134.954102 -301.428589,-301.428589c0,-166.474365 134.954224,-301.428589 301.428589,-301.428589c166.474487,0 301.428589,134.954224 301.428589,301.428589z"/>
   </g>
  </g>
 </g>
</svg>